<?xml version="1.0" encoding="utf-8"?>
<!-- Generator: Adobe Illustrator 24.1.2, SVG Export Plug-In . SVG Version: 6.00 Build 0)  -->
<svg version="1.1" id="Layer_1" xmlns="http://www.w3.org/2000/svg" xmlns:xlink="http://www.w3.org/1999/xlink" x="0px" y="0px"
	 viewBox="0 0 200 200" style="enable-background:new 0 0 200 200;" xml:space="preserve">
<style type="text/css">
	.st0{fill:#F5AA42;}
	.st1{fill:#22160F;}
	.st2{display:none;}
	.st3{display:inline;fill:#22160F;}
</style>
<g id="responsive">
	<g>
		<path class="st0" d="M190.38,200H9.62C4.31,200,0,195.69,0,190.38V9.62C0,4.31,4.31,0,9.62,0h180.76c5.31,0,9.62,4.31,9.62,9.62
			v180.76C200,195.69,195.69,200,190.38,200z"/>
	</g>
	<g id="mobile">
		<path class="st1" d="M130.97,20H69.03c-7.12,0.01-12.9,5.78-12.9,12.9V167.1c0,0.05,0,0.1,0,0.16c-0.04,1.5,0.23,3.01,0.79,4.29
			c1.81,4.93,6.55,8.45,12.11,8.46h61.94c5.56-0.01,10.3-3.53,12.11-8.46c0.56-1.28,0.82-2.79,0.79-4.29c0-0.05,0-0.1,0-0.16V32.9
			C143.86,25.78,138.09,20.01,130.97,20z M85.54,25.16h28.92c1.57,0,2.75,1.44,2.44,2.98l-0.55,2.76c-0.23,1.16-1.25,2-2.44,2H86.09
			c-1.19,0-2.21-0.84-2.44-2l-0.55-2.76C82.79,26.6,83.97,25.16,85.54,25.16z M100,175.48c-3.25,0-5.88-2.63-5.88-5.88
			s2.63-5.88,5.88-5.88s5.88,2.63,5.88,5.88S103.25,175.48,100,175.48z M138.71,160.22c-0.05,0-0.11-0.01-0.16-0.01h-77.1
			c-0.05,0-0.11,0-0.16,0.01V38.15c0.48,0.19,1.01,0.29,1.58,0.29h74.16c0.62,0,1.17-0.12,1.68-0.33V160.22z"/>
	</g>
	<g id="desktop" class="st2">
		<path class="st3" d="M176.5,28.91h-153c-5.37,0.01-9.73,4.36-9.74,9.74v102.93c0.01,5.37,4.36,9.73,9.74,9.74h66.25v12.05h-15.3
			c-1.19,0-2.16,0.97-2.16,2.16v3.4c0,1.19,0.97,2.16,2.16,2.16h51.1c1.19,0,2.16-0.97,2.16-2.16v-3.4c0-1.19-0.97-2.16-2.16-2.16
			h-15.3v-12.05h66.25c5.37-0.01,9.73-4.36,9.74-9.74V38.65C186.23,33.27,181.87,28.92,176.5,28.91z M102.78,145.07h-5.56
			c-1.54,0-2.78-1.25-2.78-2.78c0-1.54,1.25-2.78,2.78-2.78h5.56c1.54,0,2.78,1.25,2.78,2.78
			C105.56,143.82,104.32,145.07,102.78,145.07z M105.51,163.36H94.49v-12.05h11.02V163.36z M180.67,135.79H19.33V38.65
			c0-2.3,1.87-4.17,4.17-4.17h153c2.3,0,4.17,1.87,4.17,4.17V135.79z"/>
	</g>
</g>
</svg>
