<?xml version="1.0" encoding="utf-8"?>
<!-- Generator: Adobe Illustrator 24.1.2, SVG Export Plug-In . SVG Version: 6.00 Build 0)  -->
<svg version="1.1" id="Layer_1" xmlns="http://www.w3.org/2000/svg" xmlns:xlink="http://www.w3.org/1999/xlink" x="0px" y="0px"
	 viewBox="0 0 200 200" style="enable-background:new 0 0 200 200;" xml:space="preserve">
<style type="text/css">
	.st0{fill:#F5AA42;}
	.st1{fill:#22160F;}
	.st2{display:none;}
	.st3{display:inline;fill:#22160F;}
</style>
<g id="modern">
	<g>
		<path class="st0" d="M190.38,200H9.62C4.31,200,0,195.69,0,190.38V9.62C0,4.31,4.31,0,9.62,0h180.76c5.31,0,9.62,4.31,9.62,9.62
			v180.76C200,195.69,195.69,200,190.38,200z"/>
	</g>
	<g id="react">
		<g>
			<path class="st1" d="M100,87.3c-7.01,0-12.7,5.69-12.7,12.7s5.69,12.7,12.7,12.7c7.01,0,12.7-5.69,12.7-12.7
				C112.69,92.99,107.01,87.31,100,87.3z M100,107.62c-4.21,0-7.62-3.41-7.62-7.62s3.41-7.62,7.62-7.62c4.21,0,7.62,3.41,7.62,7.62
				S104.2,107.62,100,107.62z"/>
		</g>
		<g>
			<path class="st1" d="M144.19,100c3.82-3.23,7.44-6.67,10.86-10.32c10.86-11.75,14.64-21.36,10.94-27.78
				c-5.33-9.23-23.25-7.51-43.88-0.18c-3.97-21.54-11.45-37.91-22.1-37.91c-10.65,0-18.13,16.38-22.09,37.92
				c-20.64-7.33-38.56-9.05-43.88,0.18c-3.71,6.42,0.07,16.03,10.94,27.78c3.42,3.64,7.04,7.09,10.85,10.32
				c-3.82,3.23-7.44,6.67-10.86,10.32c-10.85,11.75-14.64,21.36-10.93,27.78c2.54,4.4,7.95,6.32,15.16,6.32
				c9.84-0.48,19.55-2.56,28.73-6.14c3.96,21.54,11.44,37.92,22.09,37.92c10.65,0,18.13-16.38,22.09-37.92
				c9.18,3.58,18.88,5.66,28.73,6.14c7.2,0,12.62-1.91,15.16-6.32c3.71-6.42-0.07-16.03-10.94-27.78
				C151.62,106.67,148,103.23,144.19,100z M161.59,64.45c2.38,4.12-1.46,12.27-10.27,21.79c-3.49,3.71-7.19,7.21-11.1,10.47
				c-4.69-3.77-9.8-7.51-15.28-11.13c-0.4-6.43-1.07-12.76-1.99-18.79C143.42,59.44,158.35,58.86,161.59,64.45L161.59,64.45z
				 M110.15,117.59c-3.44,1.98-6.83,3.83-10.16,5.54c-3.32-1.71-6.71-3.55-10.16-5.54c-3.4-1.96-6.68-4-9.88-6.06
				c-0.19-3.72-0.28-7.57-0.28-11.53s0.09-7.81,0.28-11.53c3.2-2.06,6.48-4.1,9.88-6.06c3.44-1.99,6.83-3.83,10.16-5.54
				c3.33,1.71,6.72,3.56,10.16,5.54c3.4,1.96,6.68,4,9.88,6.06c0.19,3.72,0.28,7.57,0.28,11.53s-0.09,7.81-0.28,11.53
				C116.84,113.6,113.56,115.63,110.15,117.59z M119.64,117.82c-0.37,4.78-0.88,9.31-1.52,13.57c-4.01-1.58-8.19-3.41-12.52-5.47
				c2.39-1.27,4.76-2.57,7.09-3.92C115.02,120.65,117.36,119.24,119.64,117.82z M94.39,125.9c-4.32,2.07-8.51,3.89-12.52,5.47
				c-0.63-4.26-1.15-8.79-1.52-13.57c2.27,1.41,4.58,2.8,6.94,4.18C89.63,123.34,92,124.63,94.39,125.9z M74.74,108.06
				c-3.87-2.65-7.51-5.33-10.95-8.06c3.43-2.72,7.08-5.41,10.95-8.07c-0.09,2.69-0.15,5.39-0.15,8.07S74.65,105.38,74.74,108.06
				L74.74,108.06z M80.36,82.17c0.37-4.77,0.88-9.31,1.52-13.56c4,1.58,8.18,3.41,12.5,5.47c-2.38,1.27-4.74,2.57-7.08,3.92
				C84.94,79.37,82.62,80.76,80.36,82.17L80.36,82.17z M105.61,74.1c4.32-2.07,8.51-3.89,12.51-5.47c0.63,4.26,1.15,8.79,1.52,13.57
				c-2.28-1.42-4.59-2.82-6.95-4.19C110.36,76.66,107.99,75.37,105.61,74.1z M125.25,91.94c3.87,2.64,7.51,5.33,10.95,8.06
				c-3.43,2.72-7.08,5.41-10.95,8.07c0.09-2.69,0.14-5.39,0.14-8.07s-0.05-5.38-0.14-8.07V91.94z M100,28.89
				c6.46,0,13.42,13.22,17.28,34.63c-5.68,2.21-11.51,4.8-17.27,7.68c-5.77-2.87-11.6-5.46-17.27-7.68
				C86.58,42.12,93.53,28.89,100,28.89z M48.68,86.24c-8.81-9.52-12.64-17.67-10.27-21.79c1.43-2.48,5.17-3.75,10.67-3.75
				c9.59,0.5,19.03,2.56,27.96,6.09c-0.93,6.02-1.59,12.35-1.99,18.78c-5.48,3.62-10.59,7.36-15.28,11.13
				C55.87,93.44,52.16,89.94,48.68,86.24z M38.41,135.55c-2.38-4.12,1.46-12.27,10.27-21.79c3.49-3.71,7.19-7.21,11.1-10.47
				c4.69,3.77,9.8,7.51,15.28,11.13c0.4,6.43,1.07,12.76,1.99,18.79C56.57,140.56,41.65,141.14,38.41,135.55z M100,171.11
				c-6.46,0-13.42-13.22-17.27-34.62c5.68-2.21,11.51-4.8,17.28-7.67c5.77,2.87,11.6,5.46,17.28,7.67
				C113.41,157.88,106.46,171.11,100,171.11z M161.58,135.55c-3.23,5.59-18.16,5.01-38.63-2.35c0.93-6.02,1.59-12.36,1.99-18.79
				c5.48-3.62,10.59-7.36,15.28-11.13c3.91,3.27,7.61,6.76,11.1,10.47C160.12,123.29,163.96,131.43,161.58,135.55z"/>
		</g>
	</g>
</g>
</svg>
