<?xml version="1.0" encoding="utf-8"?>
<!-- Generator: Adobe Illustrator 24.1.2, SVG Export Plug-In . SVG Version: 6.00 Build 0)  -->
<svg version="1.1" id="Layer_1" xmlns="http://www.w3.org/2000/svg" xmlns:xlink="http://www.w3.org/1999/xlink" x="0px" y="0px"
	 viewBox="0 0 200 200" style="enable-background:new 0 0 200 200;" xml:space="preserve">
<style type="text/css">
	.st0{fill:#F5AA42;}
	.st1{fill:#22160F;}
	.st2{display:none;}
	.st3{display:inline;fill:#22160F;}
</style>
<g id="alive">
	<g>
		<path class="st0" d="M190.38,200H9.62C4.31,200,0,195.69,0,190.38V9.62C0,4.31,4.31,0,9.62,0h180.76c5.31,0,9.62,4.31,9.62,9.62
			v180.76C200,195.69,195.69,200,190.38,200z"/>
	</g>
	<g id="heart">
		<polygon class="st1" points="120.17,103.54 109.88,98.44 109.88,82.25 105.91,82.25 105.91,99.73 94.79,116.41 81.87,124.16 
			76.25,118.54 65.81,122.02 67.07,125.79 75.17,123.09 77.9,125.81 75.12,136.93 78.98,137.9 81.35,128.41 94.2,121.36 94.2,132.9 
			89.75,129.19 87.2,132.24 94.2,138.08 94.2,150.6 98.18,150.6 98.18,141.39 105.56,147.55 108.11,144.49 98.18,136.21 
			98.18,118.25 108.9,102.39 115.89,105.83 113.16,119.47 117.06,120.26 119.36,108.76 125.88,115.28 128.68,112.47 		"/>
		<path class="st1" d="M157.76,65.09c-6.08-6.08-14.64-9.11-27.38-12.3c-4.72-1.18-18.23-2.22-30.36,1.97V40.3
			c0-4.04-1.92-7.71-5.14-9.83c-2.8-1.85-5.81-2.72-9.01-2.59c-5.41,0.2-9.13,3.19-11.06,5.23c-1.02-1.83-2.15-3.37-3.36-4.58
			c-1.47-1.47-3.61-1.86-5.85-1.05c-2.03,0.72-3.82,2.25-4.97,3.4c-3.77,3.77-8.22,11.31-4.06,15.47
			c4.07,4.07,4.06,10.55,3.83,13.33c-3.42,2.77-18.67,16.18-20.51,36.71c-1.39,15.5,5.19,31.13,19.56,46.46
			c10.54,11.25,30.24,30.12,43.71,30.12c0.75,0,1.49-0.06,2.19-0.18c7.86-1.31,15.27-13,18.99-19.85
			c11.34-20.88,20.08-53.8,14.53-74.83c1.72,0.66,3.21,1.4,4.36,2.17c5.7,3.8,11.41,1.66,14.53-2.15
			C160.67,74.55,161.61,68.94,157.76,65.09z M154.26,75.26L154.26,75.26c-1.75,2.15-4.86,3.61-8.39,1.36
			c-0.24-0.72-0.67-3.75,0.38-5.41c1.17-1.83,3.66-3.65,5.56-4.04c0.74-0.15,1.32-0.09,1.74,0.19c0.33,0.22,0.63,0.53,1.03,0.92
			C156.62,70.32,155.85,73.33,154.26,75.26z M110.49,71.94c-5.84,1.55-9.96,4.44-11.92,8.37l-0.35,0.71l4.03,2.01l0.35-0.71
			c1.73-3.45,5.87-5.18,9.05-6.03c6.22-1.66,14.42-1.57,21.97,0.21c6.76,18.78-1.4,52.46-13.24,74.27
			c-5.58,10.27-11.47,16.83-15.77,17.55c-8.29,1.37-23.56-9.05-41.87-28.58c-10.59-11.3-16.7-22.72-18.17-33.98
			c3.5,1.33,9.68,3.31,15.57,3.31c3.84,0,7.04-0.84,9.51-2.48c2.37-1.58,3.82-5.96,6.01-12.6c2.99-9.03,7.08-21.4,14.76-28.59
			c11.4-10.68,32.79-9.76,38.88-8.24c6.91,1.73,14.01,3.74,19.35,6.71c-2.59,0.97-4.77,2.7-6.18,4.91c-0.99,1.55-1.6,3.3-1.81,5.2
			c-1.77-0.65-4.33-1.44-4.36-1.44l-0.04-0.01C127.77,70.27,117.66,70.04,110.49,71.94z M69.06,32.34c0.02,3.07-0.37,7.36-3.96,9.2
			c-1.3,0.67-2.77,1.03-4.37,1.08c-0.34,0.05-0.67-0.14-0.89-0.4c-0.24-0.28-0.34-0.64-0.27-0.99c0.4-2.16,2.1-5.04,4.24-7.18
			c1.15-1.15,2.35-2,3.3-2.34c1.14-0.4,1.57-0.35,1.73-0.24C68.98,31.57,69.07,31.89,69.06,32.34z M80.89,56.29
			c-0.02-0.33-0.56-7.72-2.79-15.15c1.75,1.22,3.62,2.06,5.56,2.52c4.25,1.02,8.33,0.44,11.87-1.65v14.61
			c-3.16,1.52-5.91,3.37-8.18,5.5c-2.84,2.66-5.38,6.03-7.75,10.28c-7.75-5.32-13.83-10.21-14.78-11.55
			c0.23-2.11,0.6-8.43-2.29-13.87c1.67-0.23,3.22-0.7,4.64-1.43c2.61-1.34,4.44-3.51,5.46-6.47c3.02,7.81,3.76,17.43,3.77,17.53
			l0.05,0.79l4.5-0.31L80.89,56.29z M92.4,34.23c0.65,0.42,1.21,0.98,1.68,1.65c0.21,0.3,0.28,0.66,0.21,1.03
			c-0.08,0.42-0.34,0.79-0.7,1.03c-2.61,1.67-5.6,2.12-8.89,1.34c-1.6-0.38-3.15-1.14-4.6-2.24c-0.41-0.31-0.64-0.79-0.63-1.32
			c0.01-0.55,0.28-1.04,0.73-1.35c1.79-1.24,3.75-1.91,5.83-1.99C88.28,32.28,90.42,32.92,92.4,34.23z M62.02,64.21
			c2.43,2.77,7.65,6.89,15.51,12.23c-2.5,5.3-4.34,10.67-6.15,16.16c-1.33,4.02-3.15,9.53-4.23,10.25
			c-6.6,4.4-19.73-0.72-22.93-2.07c-0.02-1.42,0.03-2.72,0.14-3.97C45.83,80.32,56.95,68.7,62.02,64.21z"/>
	</g>
</g>
</svg>
