<?xml version="1.0" encoding="utf-8"?>
<!-- Generator: Adobe Illustrator 24.1.2, SVG Export Plug-In . SVG Version: 6.00 Build 0)  -->
<svg version="1.1" id="Layer_1" xmlns="http://www.w3.org/2000/svg" xmlns:xlink="http://www.w3.org/1999/xlink" x="0px" y="0px"
	 viewBox="0 0 200 200" style="enable-background:new 0 0 200 200;" xml:space="preserve">
<style type="text/css">
	.st0{fill:#F5AA42;}
	.st1{fill:#22160F;}
	.st2{display:none;}
	.st3{display:inline;fill:#22160F;}
</style>
<g id="unique">
	<g>
		<path class="st0" d="M190.38,200H9.62C4.31,200,0,195.69,0,190.38V9.62C0,4.31,4.31,0,9.62,0h180.76c5.31,0,9.62,4.31,9.62,9.62
			v180.76C200,195.69,195.69,200,190.38,200z"/>
	</g>
	<g id="fingerprint">
		<g>
			<g>
				<g>
					<path class="st1" d="M129.35,38.27c-8.58-3.9-18.45-5.89-29.34-5.89c-10.97,0-20.85,1.98-29.35,5.89
						c-1.41,0.65-2.03,2.32-1.38,3.74c0.65,1.41,2.32,2.03,3.74,1.38c7.76-3.57,16.85-5.38,26.99-5.38
						c10.08,0,19.16,1.81,27.01,5.38c0.38,0.17,0.78,0.25,1.17,0.25c1.07,0,2.1-0.61,2.57-1.65
						C131.39,40.59,130.76,38.92,129.35,38.27z"/>
				</g>
			</g>
		</g>
		<g>
			<g>
				<g>
					<path class="st1" d="M141.46,61.4c-11.42-11.61-25.76-17.74-41.46-17.74c-15.64,0-29.97,6.14-41.43,17.74
						c-1.09,1.11-1.08,2.9,0.02,3.99c1.11,1.09,2.89,1.08,3.98-0.02c10.38-10.51,23.32-16.07,37.42-16.07
						c14.16,0,27.11,5.56,37.45,16.06c0.55,0.56,1.28,0.84,2.01,0.84c0.71,0,1.43-0.27,1.98-0.81
						C142.53,64.29,142.55,62.51,141.46,61.4z"/>
				</g>
			</g>
		</g>
		<g>
			<g>
				<g>
					<path class="st1" d="M99.99,54.92c-4.02,0-8.01,0.5-11.86,1.48c-1.51,0.38-2.42,1.92-2.04,3.43c0.38,1.51,1.93,2.41,3.43,2.03
						c3.4-0.86,6.92-1.3,10.47-1.3c23.3,0,42.26,18.95,42.26,42.26c0,1.56,1.26,2.82,2.82,2.82c1.56,0,2.82-1.26,2.82-2.82
						C147.89,76.41,126.4,54.92,99.99,54.92z"/>
				</g>
			</g>
		</g>
		<g>
			<g>
				<g>
					<path class="st1" d="M79.8,62.41c-0.78-1.34-2.5-1.79-3.85-1.01c-3.59,2.1-6.94,4.7-9.92,7.72
						c-8.77,8.87-13.71,20.82-13.92,33.66c-0.02,1.56,1.22,2.83,2.78,2.86c0.01,0,0.03,0,0.05,0c1.53,0,2.79-1.23,2.81-2.77
						c0.18-11.38,4.54-21.96,12.29-29.79c2.64-2.67,5.58-4.96,8.76-6.81C80.13,65.48,80.58,63.75,79.8,62.41z"/>
				</g>
			</g>
		</g>
		<g>
			<g>
				<g>
					<path class="st1" d="M127.6,78.77c-6.98-8-17.04-12.58-27.61-12.58c-9.83,0-19.04,3.85-25.95,10.85
						c-6.89,6.95-10.67,16.36-10.67,26.62c0.02,6.06-1.88,13.33-5.27,20.31l-1.58,2.82c-0.76,1.36-0.28,3.07,1.08,3.84
						c0.44,0.25,0.91,0.37,1.38,0.37c0.99,0,1.94-0.52,2.46-1.44l1.66-2.96c3.89-8.01,5.93-15.95,5.91-23.08
						c0-8.63,3.21-16.62,9.04-22.51c5.85-5.92,13.64-9.17,21.95-9.17c8.94,0,17.46,3.88,23.36,10.65c1.02,1.17,2.81,1.29,3.98,0.27
						C128.5,81.73,128.62,79.95,127.6,78.77z"/>
				</g>
			</g>
		</g>
		<g>
			<g>
				<g>
					<path class="st1" d="M141.86,135.29l-3.18-10.4c-1.79-8.15-1.94-15.93-2.03-20.59l-0.03-1.49c0-4.18-0.7-8.28-2.09-12.19
						c-0.52-1.47-2.11-2.23-3.59-1.71c-1.47,0.52-2.23,2.12-1.71,3.59c1.17,3.31,1.76,6.78,1.76,10.38l0.03,1.53
						c0.1,4.86,0.26,12.99,2.22,21.9l3.22,10.62c0.37,1.22,1.49,1.99,2.7,1.99c0.27,0,0.55-0.04,0.82-0.12
						C141.47,138.35,142.31,136.79,141.86,135.29z"/>
				</g>
			</g>
		</g>
		<g>
			<g>
				<g>
					<path class="st1" d="M133.64,148.31l-2.62-8.39c-4.65-14.51-5.52-30.83-5.67-37.1c0-13.98-11.38-25.35-25.35-25.35
						s-25.35,11.55-25.35,25.85c0.01,2.96-0.54,18.62-12.44,35.78c-0.89,1.28-0.57,3.04,0.7,3.92c1.27,0.88,3.04,0.57,3.92-0.7
						c12.54-18.08,13.46-34.44,13.44-39.09c0-11.09,8.85-20.11,19.71-20.11c10.87,0,19.72,8.85,19.72,19.79
						c0.2,8.18,1.25,24.09,5.93,38.74l2.6,8.36c0.38,1.21,1.49,1.98,2.69,1.98c0.28,0,0.56-0.04,0.84-0.12
						C133.27,151.37,134.1,149.79,133.64,148.31z"/>
				</g>
			</g>
		</g>
		<g>
			<g>
				<g>
					<path class="st1" d="M114.08,102.82c0-7.76-6.32-14.09-14.09-14.09s-14.09,6.32-14.09,14.19c0.03,0.93,0.66,23.06-17.24,46.35
						c-0.95,1.23-0.72,3,0.52,3.95c1.24,0.95,3,0.71,3.95-0.52c19.12-24.88,18.43-48.98,18.4-49.89c0-4.66,3.79-8.45,8.45-8.45
						s8.45,3.79,8.46,8.51c0.08,3.16,0.1,31.62-21.9,60.2c-0.95,1.23-0.72,3,0.51,3.95c0.52,0.39,1.12,0.59,1.72,0.59
						c0.85,0,1.68-0.38,2.23-1.1C114.23,136.36,114.16,106.1,114.08,102.82z"/>
				</g>
			</g>
		</g>
		<g>
			<g>
				<g>
					<path class="st1" d="M102.8,102.69c-0.07-1.55-1.29-2.78-2.94-2.69c-1.55,0.07-2.76,1.38-2.69,2.94
						c0,0.04,0.16,4.16-0.89,10.68c-0.24,1.54,0.81,2.99,2.34,3.23c0.15,0.02,0.3,0.03,0.45,0.03c1.36,0,2.56-0.99,2.78-2.37
						C103,107.38,102.81,102.88,102.8,102.69z"/>
				</g>
			</g>
		</g>
		<g>
			<g>
				<g>
					<path class="st1" d="M97.27,122.73c-1.5-0.45-3.06,0.41-3.5,1.9c-3.52,11.89-9.38,23.02-17.4,33.07
						c-0.97,1.22-0.77,2.99,0.45,3.96c0.52,0.42,1.14,0.61,1.76,0.61c0.83,0,1.65-0.36,2.2-1.06c8.48-10.62,14.67-22.39,18.41-34.98
						C99.62,124.75,98.77,123.17,97.27,122.73z"/>
				</g>
			</g>
		</g>
		<g>
			<g>
				<g>
					<path class="st1" d="M124.58,156.49l-3.4-10.79c-1.35-4.05-2.61-8.32-2.62-8.34c-0.34-1.14-1.35-1.95-2.54-2.02
						c-1.22-0.08-2.29,0.61-2.76,1.71c-0.06,0.15-6.34,14.9-13.53,26.23c-0.83,1.31-0.45,3.05,0.87,3.89
						c0.47,0.3,0.99,0.44,1.51,0.44c0.94,0,1.84-0.46,2.38-1.31c4.36-6.86,8.31-14.74,10.89-20.22c0.15,0.45,0.3,0.91,0.45,1.36
						l3.38,10.74c0.47,1.48,2.03,2.32,3.53,1.84C124.22,159.56,125.05,157.98,124.58,156.49z"/>
				</g>
			</g>
		</g>
	</g>
</g>
</svg>
