<?xml version="1.0" encoding="utf-8"?>
<!-- Generator: Adobe Illustrator 24.1.2, SVG Export Plug-In . SVG Version: 6.00 Build 0)  -->
<svg version="1.1" id="Layer_1" xmlns="http://www.w3.org/2000/svg" xmlns:xlink="http://www.w3.org/1999/xlink" x="0px" y="0px"
	 viewBox="0 0 206 262" style="enable-background:new 0 0 206 262;" xml:space="preserve">
<style type="text/css">
	.st0{fill:#141414;}
</style>
<g>
	<path class="st0" d="M192.64,9.62c4.28,4.03,6.42,8.61,6.42,13.74c0,14.04-9.89,28.22-29.67,42.51
		c-4.97,5.48-7.45,11.13-7.45,16.95c0,5.65-1.76,12.03-5.27,19.14h-2.18v-7.45c0-5.99-6.72-10.23-20.17-12.72
		c-0.69-1.11-1.03-3.25-1.03-6.42c-1.8,0-7.45,3.55-16.95,10.66c-2.48,0-4.62,5.99-6.42,17.98l-3.21,3.21
		c-1.37,0-2.06-2.48-2.06-7.45h-1.03c-0.77,1.46-1.5,11.73-2.18,30.83c0.68,0,1.03,0.34,1.03,1.03c1.46,0,3.94-0.73,7.45-2.18
		l1.03,2.18c-4.71,6.51-10.36,12.16-16.95,16.95c-2.14,3.34-3.21,7.96-3.21,13.87v3.08c0,9.25,2.83,21.28,8.48,36.09v1.03
		c0,0.77-0.69,4.33-2.05,10.66h-2.18c0-6.34-2.83-9.5-8.48-9.5c-30.06,8.82-45.6,15.88-46.63,21.19
		c-14.9,11.82-22.35,21.37-22.35,28.64h-2.05c-1.46-5.65-2.18-9.2-2.18-10.66c0-11.13,7.45-21.71,22.35-31.73
		c8.48-7.45,12.72-13.83,12.72-19.14h1.03c0,1.54,2.48,2.61,7.45,3.21c5.99,0,10.23-13.1,12.72-39.3h-4.24
		c-3.85,0-6.68-1.75-8.48-5.27c0.17-1.46,0.9-2.18,2.18-2.18l1.03,2.18c6.51,0,11.43-3.9,14.77-11.69c4.11,0,6.98-5.65,8.61-16.95
		v-9.63h-1.16l-4.24,2.18c-0.69-1.46-1.03-2.52-1.03-3.21c2.83-5.65,4.24-10.23,4.24-13.74c0-3.25-1.07-8.56-3.21-15.93h-1.03
		c0,1.88-7.06,4.37-21.19,7.45v-2.18c4.19,0,6.68-3.17,7.45-9.5l-26.59,3.08H33.5c-1.71,0-5.95-1.03-12.72-3.08h-1.03
		c-5.31,0-9.89,4.58-13.74,13.74H3.83c0-14.47,6.38-24.02,19.14-28.64c0-1.37,3.9-2.44,11.69-3.21c3.34,2.14,5.44,3.21,6.29,3.21
		c30.4-0.85,45.6-4.02,45.6-9.5c13.27-5.48,21.79-12.93,25.56-22.35c1.37-9.16,2.78-13.74,4.24-13.74
		c1.37,3.34,2.05,7.58,2.05,12.72c0,6.51-3.17,17.13-9.5,31.85v4.24c0.17,1.37,0.85,2.06,2.05,2.06c1.8-3.51,4.62-5.27,8.48-5.27
		l14.9,1.03c13.79-4.37,23.33-7.88,28.64-10.53c8.65-11.3,15.71-16.95,21.19-16.95C189.81,28.93,192.64,20.06,192.64,9.62z"/>
</g>
</svg>
